<svg width="81" height="81" viewBox="0 0 81 81" fill="none" xmlns="http://www.w3.org/2000/svg">
<path d="M0 81L7.10526 52.7641L49.4526 10.2676L70.4842 31.3732L28.1368 73.8697L0 81ZM12.2211 55.6162L7.95789 73.0141L25.2947 68.7359L62.5263 31.3732L49.4526 18.2535L12.2211 55.6162Z" fill="black"/>
<path d="M23.3053 72.1584C21.6 65.0282 15.9158 59.3239 8.81053 57.6127L10.2316 52.1937C19.3263 54.4753 26.4316 61.6056 28.7053 70.7324L23.3053 72.1584Z" fill="black"/>
<path d="M55.9838 20.7833L60.0025 24.8162L23.0267 61.9507L19.008 57.9293L55.9838 20.7833ZM3.97895 77.007L12.2211 75.0106C11.3684 71.8732 9.09474 69.5915 5.96842 68.7359L3.97895 77.007ZM72.1895 29.662L51.1579 8.55634L59.6842 0L61.1053 0.285212C71.3368 1.71127 79.2947 9.69718 80.7158 19.9648L81 21.3908L72.1895 29.662ZM59.1158 8.55634L72.1895 21.6761L74.7474 19.1092C73.3263 12.5493 68.2105 7.41549 61.6737 5.98944L59.1158 8.55634Z" fill="black"/>
</svg>
